<svg xmlns="http://www.w3.org/2000/svg" xmlns:xlink="http://www.w3.org/1999/xlink" width="200" height="200" class="icon" p-id="10880" t="1525761666409" version="1.1" viewBox="0 0 1024 1024"><defs><style type="text/css"/></defs><path d="M107.2 212.8m-67.2 0a4.2 4.2 0 1 0 134.4 0 4.2 4.2 0 1 0-134.4 0Z" p-id="10881"/><path d="M980.8 145.6 297.6 145.6c-9.6 0-16 8-16 16l0 102.4c0 9.6 8 16 16 16l683.2 0c9.6 0 16-8 16-16l0-102.4C996.8 152 988.8 145.6 980.8 145.6z" p-id="10882"/><path d="M96 497.6m-67.2 0a4.2 4.2 0 1 0 134.4 0 4.2 4.2 0 1 0-134.4 0Z" p-id="10883"/><path d="M968 430.4 284.8 430.4c-9.6 0-16 8-16 16l0 102.4c0 9.6 8 16 16 16l683.2 0c9.6 0 16-8 16-16l0-102.4C984 438.4 977.6 430.4 968 430.4z" p-id="10884"/><path d="M96 795.2m-67.2 0a4.2 4.2 0 1 0 134.4 0 4.2 4.2 0 1 0-134.4 0Z" p-id="10885"/><path d="M968 728 284.8 728c-9.6 0-16 8-16 16l0 102.4c0 9.6 8 16 16 16l683.2 0c9.6 0 16-8 16-16l0-102.4C984 736 977.6 728 968 728z" p-id="10886"/></svg>