<svg xmlns="http://www.w3.org/2000/svg" xmlns:xlink="http://www.w3.org/1999/xlink" width="64" height="64" class="icon" p-id="8433" t="1503994138443" version="1.1" viewBox="0 0 1024 1024"><defs><style type="text/css"/></defs><path d="M67.039347 100.410897l889.919259 0 0 200.231347-889.919259 0 0-200.231347Z" p-id="8434"/><path d="M67.039347 345.138668l266.976494 0 0 266.975471-266.976494 0 0-266.975471Z" p-id="8435"/><path d="M67.039347 656.610562l266.976494 0 0 266.976494-266.976494 0 0-266.976494Z" p-id="8436"/><path d="M378.511241 345.138668l266.976494 0 0 266.975471-266.976494 0 0-266.975471Z" p-id="8437"/><path d="M378.511241 656.610562l266.976494 0 0 266.976494-266.976494 0 0-266.976494Z" p-id="8438"/><path d="M689.983135 345.138668l266.976494 0 0 266.975471-266.976494 0 0-266.975471Z" p-id="8439"/><path d="M689.983135 656.610562l266.976494 0 0 266.976494-266.976494 0 0-266.976494Z" p-id="8440"/><path d="M67.039347 100.410897l889.919259 0 0 200.231347-889.919259 0 0-200.231347Z" p-id="8441"/><path d="M67.039347 345.138668l266.976494 0 0 266.975471-266.976494 0 0-266.975471Z" p-id="8442"/><path d="M67.039347 656.610562l266.976494 0 0 266.976494-266.976494 0 0-266.976494Z" p-id="8443"/><path d="M378.511241 345.138668l266.976494 0 0 266.975471-266.976494 0 0-266.975471Z" p-id="8444"/><path d="M378.511241 656.610562l266.976494 0 0 266.976494-266.976494 0 0-266.976494Z" p-id="8445"/><path d="M689.983135 345.138668l266.976494 0 0 266.975471-266.976494 0 0-266.975471Z" p-id="8446"/><path d="M689.983135 656.610562l266.976494 0 0 266.976494-266.976494 0 0-266.976494Z" p-id="8447"/></svg>